<svg xmlns="http://www.w3.org/2000/svg" width="424.09784pt" height="375pt" viewBox="0 0 424.09782 374.99999"><path d="M229.036 4.92C207.463 4.876 193.14 9.78 193.14 9.78s.722 4.73 0 13.526c5.576 7.487 13.052 28.79 14.445 34.902 6.789-1.614 56.026-14.859 93.712 12.927 74.56 54.974 29.252 132.062 29.252 132.062l9.556 5.731c36.403-55.225 32.651-135.262-31.677-179.176-28.996-19.794-57.817-24.786-79.39-24.83Zm-53.667 1a22.276 22.276 0 0 0-2.06.03c-.819.053-1.546.195-2.199.373-.672.22-1.225.503-1.687.888a3.522 3.522 0 0 0-1.034 1.469c-.247.614-.327 1.355-.27 2.194.069 1.016.296 1.796.693 2.391.396.593.873 1.093 1.453 1.45a7.536 7.536 0 0 0 1.79.926c.641.244 1.234.495 1.803.742a5.458 5.458 0 0 1 1.396.968c.38.378.593.893.638 1.557.029.44-.057.798-.212 1.1-.178.32-.403.606-.7.803-.317.22-.663.376-1.056.492a6.028 6.028 0 0 1-1.223.219c-.929.06-1.761-.126-2.483-.611-.74-.436-1.254-1.156-1.495-2.137l-.796.119.535 3.597c.267.03.584.096.964.162.36.063.74.105 1.165.165.402.04.826.075 1.272.112.423.015.846.03 1.242.004a11.106 11.106 0 0 0 2.256-.396c.696-.226 1.318-.53 1.845-.923a3.986 3.986 0 0 0 1.203-1.549c.273-.596.399-1.36.339-2.24-.066-.972-.319-1.73-.715-2.323a5.99 5.99 0 0 0-1.472-1.43c-.601-.359-1.215-.651-1.876-.895-.68-.22-1.298-.49-1.85-.761-.595-.252-1.08-.57-1.464-.969-.401-.37-.616-.913-.66-1.595-.045-.64.206-1.211.749-1.691.522-.457 1.258-.728 2.187-.788.795-.058 1.465.054 2.037.303.551.273.99.842 1.31 1.661l.793-.1-.465-3.313c-.62.042-1.284.04-1.953-.004zm-11.355 1.138c-1.068.199-2.184.362-3.32.53-1.163.168-2.258.33-3.31.484-.743.108-1.493.214-2.214.32-.745.11-1.465.213-2.218.276l.138.942c.441-.042.797-.065 1.088-.065.268.005.476.065.673.172.15.11.29.292.392.546.086.278.16.646.226 1.107l1.388 9.502c.084.572.124 1.01.15 1.346.008.356-.06.655-.165.85a.942.942 0 0 1-.562.46c-.27.108-.64.187-1.122.258l.138.942c.803-.166 1.611-.282 2.422-.4.79-.116 1.601-.234 2.433-.358 1.094-.157 2.19-.317 3.29-.453 1.097-.163 2.19-.301 3.287-.461a23.749 23.749 0 0 1 0-1.834c.005-.582.01-1.163.054-1.772l-.87.035c-.146.511-.285.915-.445 1.207-.176.338-.365.588-.603.78-.24.215-.533.347-.877.442-.34.118-.774.202-1.257.273l-1.16.165c-.615.092-1.034-.045-1.23-.465-.237-.39-.395-1.017-.516-1.849l-.538-3.678 1.357-.2c.42-.06.792-.094 1.1-.139.29.003.542.036.776.112.194.107.372.26.496.488.126.25.226.617.292 1.076l.765-.111c-.053-.373-.14-.806-.23-1.284-.111-.454-.171-.872-.232-1.268a7.412 7.412 0 0 1-.076-.68 9.025 9.025 0 0 1-.089-.75c-.029-.22-.065-.441-.073-.661a3.054 3.054 0 0 1-.05-.504l-.768.111c.02.132.018.264.023.442a1.787 1.787 0 0 1-.161.585 1.667 1.667 0 0 1-.48.542c-.242.17-.564.28-.98.338l-1.907.28-.785-5.385 2.015-.296c.482-.07.926-.092 1.307-.1.362.037.705.1.991.212.268.142.496.335.711.569.17.267.333.6.477.98l.75-.223zm-13 2.033c-.26.055-.54.119-.845.184-.296.084-.602.146-.903.212-.323.092-.622.156-.927.219-.301.066-.583.124-.822.177l-.804.169c-.301.068-.58.123-.887.165-.305.066-.606.13-.892.17-.305.062-.586.121-.846.176l.196.934c.283-.06.544-.09.803-.146.226-.003.459.016.65.065.202.092.364.215.519.404.131.202.265.515.346.903l2.28 10.72c.089.413.088.732.045.966-.06.238-.153.44-.307.56a1.01 1.01 0 0 1-.565.324c-.25.102-.511.157-.792.215l.196.93c.517-.131 1.1-.254 1.795-.404.645-.157 1.252-.285 1.772-.395a40.997 40.997 0 0 1 1.645-.331c.609-.129 1.199-.232 1.718-.342l-.196-.93c-.304.065-.566.12-.792.123-.257.055-.465.03-.665-.062a.954.954 0 0 1-.518-.392c-.153-.194-.26-.487-.346-.9l-2.28-10.716c-.081-.39-.106-.723-.046-.965.042-.233.16-.416.308-.584.155-.123.335-.233.584-.33.218-.045.472-.122.777-.185zm-15.782 4.017c-.635.064-1.295.196-1.976.396-.805.236-1.459.446-1.968.595-.546.181-1.034.325-1.48.454-.425.126-.829.244-1.257.365-.422.126-.85.25-1.264.323l.269.915c.233-.066.472-.115.726-.188.226-.021.458-.017.68.03.205.079.411.231.616.446.178.223.346.567.48 1.034l2.968 10.148c.089.388.13.699.107.938-.02.239-.1.444-.223.572-.134.179-.322.303-.546.416a9.243 9.243 0 0 1-.795.346l.265.914c.462-.16.947-.301 1.415-.438.461-.157.93-.292 1.418-.434.49-.145.957-.278 1.41-.388.426-.124.918-.248 1.469-.408 1.233-.36 2.273-.828 3.129-1.376.81-.538 1.49-1.126 1.99-1.78.492-.6.853-1.262 1.081-1.975.22-.664.351-1.323.411-1.984a8.473 8.473 0 0 0-.05-1.76 11.401 11.401 0 0 0-.288-1.372 8.811 8.811 0 0 0-1.349-2.741 8.357 8.357 0 0 0-2.306-2.045c-.908-.517-1.949-.833-3.106-1.003a8.934 8.934 0 0 0-1.826 0zm-.346 1.553c.385-.024.761 0 1.126.065.714.16 1.378.45 1.968.903.599.47 1.116 1.056 1.58 1.772.446.745.827 1.577 1.1 2.514.222.764.353 1.53.445 2.314.071.806.012 1.537-.153 2.23a4.407 4.407 0 0 1-1.004 1.864c-.482.553-1.168.962-2.06 1.222-.21.06-.434.104-.615.112a.862.862 0 0 1-.557-.093c-.208-.078-.36-.219-.515-.426-.147-.19-.283-.494-.396-.877l-3.202-10.978c.147-.044.288-.11.403-.188.129-.034.359-.127.7-.227a5.394 5.394 0 0 1 1.18-.207zm-9.406 1.222c-.37.147-.753.323-1.184.496-.446.202-.832.358-1.184.5-.448.18-.925.368-1.445.557-.535.212-1.026.413-1.464.565l.353.884c.462-.16.82-.282 1.103-.35a.94.94 0 0 1 .742.135c.213.176.434.491.665.945.22.483.511 1.155.857 2.018l2.13 5.297c.18.451.321.919.45 1.415.115.527.131 1.046.084 1.518-.06.501-.23.972-.519 1.376-.296.454-.762.785-1.376 1.034-.577.228-1.095.293-1.564.196-.51-.081-.96-.307-1.388-.661a5.05 5.05 0 0 1-1.16-1.345c-.363-.546-.665-1.186-.946-1.884l-2.599-6.469c-.15-.37-.23-.691-.211-.938-.002-.241.087-.443.2-.634.131-.147.292-.281.523-.423.204-.081.444-.2.73-.315l-.354-.884c-.249.097-.516.207-.8.323-.28.139-.568.25-.856.365-.297.144-.588.26-.877.373-.286.118-.55.223-.776.315-.247.1-.494.196-.761.303a9.795 9.795 0 0 1-.854.32 9.415 9.415 0 0 1-.85.319c-.285.12-.552.223-.799.322l.358.88c.265-.104.518-.181.765-.284.22-.04.454-.058.653-.042.213.055.393.146.577.311.165.174.349.46.496.827l2.813 7.003c.793 1.97 1.836 3.266 3.156 3.882 1.302.625 2.843.601 4.609-.107.923-.373 1.668-.838 2.23-1.4.534-.569.91-1.175 1.133-1.86a5.446 5.446 0 0 0 .223-2.19 9.13 9.13 0 0 0-.607-2.334l-2.153-5.358a48.165 48.165 0 0 1-.646-1.668c-.17-.43-.252-.806-.242-1.142-.017-.28.067-.554.242-.769.163-.184.467-.374.877-.542zm-15.71 6.1-.887.45c.02.139-.06.278-.196.396-.158.13-.403.28-.758.461l-7.568 3.852c-.394.202-.646.335-.788.353-.147.053-.288.022-.427-.104l-.865.439 1.788 3.659.807-.411c-.084-.357-.176-.68-.215-.958a1.568 1.568 0 0 1-.046-.722c.05-.2.175-.388.372-.584.205-.181.522-.392.973-.623l1.499-.765 5.408 10.624c.19.373.273.676.296.915 0 .25-.035.467-.154.627-.097.2-.268.355-.465.457-.217.16-.452.28-.707.411l.43.846c.465-.262.997-.527 1.627-.85.58-.32 1.134-.604 1.606-.845a46.4 46.4 0 0 1 1.507-.742c.551-.28 1.093-.53 1.568-.769l-.43-.85c-.276.14-.513.26-.73.32-.237.12-.444.152-.662.115a.924.924 0 0 1-.595-.242c-.2-.147-.378-.401-.57-.777l-5.408-10.624 1.91-.976c.394-.2.71-.305.985-.35.267-.013.506.014.703.112.19.125.367.284.52.484.138.226.288.47.43.746l.826-.42zm-19.03 1.36a22.19 22.19 0 0 1-2.564 1.408c-.947.488-1.851.986-2.69 1.522a16.865 16.865 0 0 0-2.618 2.068c-.725.776-1.252 1.55-1.58 2.39-.33.84-.429 1.733-.3 2.672.12.99.543 2.023 1.222 3.083.822 1.286 1.69 2.146 2.637 2.644.947.494 1.935.81 2.956.865 1.01.103 2.024.082 3.021-.08a71.212 71.212 0 0 1 2.906-.323c.924-.037 1.766.05 2.537.269.769.215 1.421.746 1.957 1.583.357.562.503 1.097.51 1.603 0 .554-.095 1.087-.341 1.557a5.286 5.286 0 0 1-1.027 1.407c-.461.454-.956.85-1.46 1.172-1.176.75-2.405 1.103-3.702.988-1.288-.042-2.478-.616-3.51-1.734l-.952.73 3.294 4.352c.372-.157.835-.297 1.383-.488.517-.176 1.043-.396 1.65-.627.553-.236 1.138-.492 1.752-.765.567-.283 1.134-.569 1.638-.891a16.191 16.191 0 0 0 2.683-2.15c.753-.794 1.348-1.649 1.76-2.544.383-.876.55-1.847.47-2.902-.074-.976-.457-2.068-1.173-3.186-.785-1.231-1.667-2.045-2.614-2.541a9.023 9.023 0 0 0-2.967-.823 16.47 16.47 0 0 0-3.11.181c-1.055.2-2.062.291-2.983.33-.96.103-1.832.032-2.621-.215-.795-.196-1.469-.753-2.022-1.622-.52-.808-.598-1.744-.23-2.767.359-.976 1.129-1.865 2.302-2.618 1.007-.643 1.97-.98 2.902-1.065.92-.036 1.91.394 2.925 1.242l.968-.7zm92.693 13.358c-20.021 0-39.558 4.083-58.068 12.131C51.635 80.89 17.73 166.958 49.788 240.69c23.167 53.278 75.683 87.7 133.788 87.7 5.82 0 11.59-.385 17.316-1.072a150.034 150.034 0 0 1-3.586-4.901c-4.545.446-9.125.684-13.73.684-55.998 0-106.608-33.177-128.934-84.522-30.892-71.056 1.78-154 72.833-184.895 17.841-7.76 36.666-11.693 55.958-11.693 4.464 0 8.885.235 13.27.65a176.537 176.537 0 0 0-2.288-5.524 146.606 146.606 0 0 0-10.982-.415zM74 44.308c-.33.291-.666.616-1.065.965-.401.38-.769.703-1.084.984-.399.349-.811.713-1.291 1.107-.467.41-.9.79-1.296 1.107l.627.715c.399-.35.778-.627 1.103-.792.339-.152.641-.207.938-.173.278.05.567.174.869.384.283.22.608.524.957.923l5.158 5.862-15.075-2.295c-.087.136-.22.282-.385.427-.154.194-.339.358-.522.519-.184.191-.385.368-.55.515a5.908 5.908 0 0 1-.415.392c-.265.236-.55.484-.896.757-.349.307-.648.572-.91.776l.626.711c.713-.63 1.36-.931 1.956-.926.59.04 1.229.425 1.888 1.172l5.711 6.497c.496.564.811 1.022.992 1.395.163.388.235.707.204.972a1.317 1.317 0 0 1-.346.746c-.202.239-.435.44-.684.661l.626.711c.352-.336.75-.686 1.215-1.095.433-.415.85-.777 1.215-1.1.364-.32.767-.67 1.245-1.064.451-.394.877-.745 1.242-1.065l-.627-.711c-.464.41-.842.682-1.165.819a1.263 1.263 0 0 1-.98.092c-.307-.079-.652-.31-1.022-.661-.373-.323-.826-.805-1.353-1.403l-5.04-5.731 16.283 2.502 1.13-.996-8.633-9.817c-.38-.433-.64-.796-.792-1.103a1.552 1.552 0 0 1-.17-.792 1.5 1.5 0 0 1 .308-.653c.17-.179.37-.386.634-.62zm113.173 9.963-2.31 4.763c.16.078 8.791 4.334 20.757 13.26l.711-.322c.869-.383 1.732-.748 2.606-1.107l.538-.215c.62-.25 1.236-.487 1.853-.723a189.2 189.2 0 0 0-7.303-5.37l-.458.108-.115-.511c-9.305-6.448-15.706-9.605-16.278-9.883zm57.358 3.606v6.53c48.889 0 88.661 37.746 88.661 87.609 0 15.08-3.865 29.986-11.189 43.112l5.747 3.01c6.898-12.37 11.973-31.667 11.973-46.122 0-52.292-42.897-94.14-95.192-94.14zM58.198 59.56c-.806.522-1.582 1.012-2.314 1.484a11.308 11.308 0 0 0-2.11 1.818 8.01 8.01 0 0 0-1.676 2.787c-.347 1.034-.486 2.044-.408 3.075.06 1.044.356 2.065.838 3.044a9.628 9.628 0 0 0 2.114 2.745c.407.372.88.744 1.43 1.064a7.416 7.416 0 0 0 1.788.827 7.83 7.83 0 0 0 2.04.457 6.451 6.451 0 0 0 2.176-.146c.73-.144 1.467-.425 2.214-.853.735-.41 1.457-1.003 2.16-1.772a11.031 11.031 0 0 0 1.638-2.349c.402-.831.831-1.664 1.28-2.483l-.146-.138a2.576 2.576 0 0 1-.769-.37c-.273-.16-.55-.383-.876-.68l-1.73-1.583c-.312-.284-.53-.54-.634-.784a1.248 1.248 0 0 1-.135-.608 1.14 1.14 0 0 1 .212-.495c.118-.13.237-.295.357-.423l-.703-.642c-.223.275-.492.568-.807.915-.313.372-.64.731-.98 1.107-.182.196-.377.409-.6.653-.239.262-.48.522-.734.769-.255.278-.49.54-.73.769-.24.26-.449.493-.627.688l.703.642c.194-.21.388-.39.57-.585.164-.152.361-.27.545-.342.22-.04.425-.033.661.035.239.097.528.27.838.553l2.76 2.526c-.021.22-.132.476-.292.75-.16.304-.397.598-.68.91-.583.638-1.253 1.04-2.03 1.2-.777.191-1.577.18-2.399.03a8.159 8.159 0 0 1-2.417-.86 10.331 10.331 0 0 1-2.103-1.47 8.988 8.988 0 0 1-1.526-1.844 6.875 6.875 0 0 1-.96-2.168 5.79 5.79 0 0 1-.085-2.241c.125-.724.486-1.414 1.053-2.033.36-.394.754-.725 1.145-1.027a6.29 6.29 0 0 1 1.272-.6c.465-.12.92-.152 1.407-.126.475.073.981.239 1.496.496l.55-.604zm77.138 5.578-4.851 2.106 21.248 48.863c1.362-1.352 2.705-2.677 4.033-3.986zm109.64 3.767c-.311.002-.625.006-.937.011-.722.013-1.44.037-2.156.065-.279.014-.56.023-.835.039-.97.05-1.934.11-2.894.192-.11.01-.225.024-.338.035-.85.073-1.696.16-2.541.257-.297.037-.59.076-.884.116-.69.086-1.378.18-2.06.284a83.104 83.104 0 0 0-3.667.623c-.916.176-1.824.37-2.73.572-.28.063-.56.134-.837.197a97.945 97.945 0 0 0-2.818.707c-.78.207-1.554.429-2.325.657-.116.034-.235.066-.35.1-.88.265-1.752.542-2.618.83-.254.084-.506.175-.761.262-.63.215-1.255.435-1.88.66a107.197 107.197 0 0 0-2.86 1.104c-.173.068-.349.133-.522.204a97.949 97.949 0 0 0-3.14 1.357 86.436 86.436 0 0 0-2.595 1.214 83.79 83.79 0 0 0-1.818.911c-.194.1-.394.198-.588.3-.777.404-1.546.815-2.307 1.238-.189.105-.378.218-.565.323-.588.33-1.168.662-1.745 1.003a95.378 95.378 0 0 0-2.38 1.453c-.199.126-.398.25-.595.376a88.88 88.88 0 0 0-2.145 1.407c-.144.097-.282.195-.426.292-.57.391-1.137.785-1.696 1.184-.223.158-.44.317-.66.477-.505.367-1.003.738-1.496 1.11l-.58.439a106.44 106.44 0 0 0-1.968 1.545c-.082.066-.16.134-.239.2a87.82 87.82 0 0 0-1.68 1.4c-.194.165-.388.334-.58.499-.454.394-.902.789-1.345 1.188-.181.162-.365.326-.546.492-.6.548-1.195 1.096-1.772 1.653-11.144 10.706-35.996 34.96-53.763 53.648l-1.565 1.653-.438.469c-.344.367-.684.73-1.007 1.08l-.504.55c-.278.298-.55.597-.807.883l-.507.565a71.05 71.05 0 0 0-1.142 1.311c-.2.234-.392.457-.573.68a29.198 29.198 0 0 0-.891 1.123c-.118.155-.243.31-.35.457-.144.197-.27.382-.396.565a13.3 13.3 0 0 0-.27.404c-.12.186-.218.361-.318.534-.063.108-.132.222-.185.327a5.734 5.734 0 0 0-.246.553c-.026.066-.064.141-.088.204a3.07 3.07 0 0 0-.154.65c-.006.057.004.105.004.157a1.46 1.46 0 0 0 .027.396c.016.066.05.12.073.18.04.098.083.191.146.278.042.055.102.105.154.157a1.712 1.712 0 0 0 .5.323c.115.053.236.097.372.139.103.031.214.058.327.084.155.035.325.062.504.085.131.019.263.036.407.046.197.016.415.021.638.027.168.002.327.008.508.008.155-.002.319-.01.484-.016.234-.008.472-.015.726-.034a40.029 40.029 0 0 0 1.403-.126c.208-.024.418-.045.639-.074.31-.036.639-.083.972-.13.226-.032.448-.06.684-.096.37-.055.761-.12 1.157-.185.231-.036.453-.07.692-.111.475-.082.979-.174 1.488-.265.189-.037.367-.068.56-.104.715-.134 1.46-.277 2.242-.434a162.076 162.076 0 0 0 2.472-.508c.309-.063.64-.14.96-.208.567-.12 1.138-.241 1.734-.372.37-.08.753-.166 1.134-.25.577-.129 1.16-.255 1.764-.389l1.276-.288 1.872-.426c.452-.105.904-.21 1.369-.316.65-.152 1.321-.305 1.998-.465.48-.11.955-.219 1.446-.334.753-.176 1.529-.356 2.314-.542.438-.102.87-.204 1.318-.311.142-.032.293-.07.434-.104.722-.17 1.459-.34 2.207-.519l.038-.008c8.586-2.278 17.775-4.091 27.007-4.862 12.784-1.063 26.136-.12 38.23 2.494 1.43.31 2.843.641 4.236.996 2.113.54 4.176 1.129 6.181 1.772.152.05.302.103.454.15 1.267.414 2.507.849 3.724 1.303a83.738 83.738 0 0 1 5.155 2.102c1.078.489 2.126.989 3.144 1.511.333.17.652.301.98.454 1.945.913 3.81 1.56 5.558 1.898 1.54.297 2.993.364 4.336.212 1.75-.197 3.323-.762 4.659-1.722 2.831-2.044 4.308-5.677 3.76-9.256-.51-3.314-2.673-5.838-5.932-6.919-.089-.029-.183-.047-.273-.073-1.477-.435-3-.418-4.359.031a6.3 6.3 0 0 0-1.157.504 5.691 5.691 0 0 0-2.794 3.759c-.31 1.38.005 2.155.021 2.187.548 1.063.118 2.33-.942 2.879a2.146 2.146 0 0 1-2.095-.08 2.185 2.185 0 0 1-.834-.877c-.173-.339-1.015-2.174-.373-5.055a9.96 9.96 0 0 1 2.537-4.747 10.153 10.153 0 0 1 2.349-1.83c1.189-.674 2.506-1.093 3.863-1.287a11.78 11.78 0 0 1 4.332.188c.365.084.728.182 1.088.3 4.783 1.587 8.091 5.458 8.844 10.363.793 5.167-1.368 10.435-5.504 13.419-1.556 1.12-4.108 2.404-7.703 2.598-1.299.07-2.738-.008-4.313-.288-1.698-.3-3.556-.838-5.585-1.688-.787-.33-1.59-.688-2.43-1.118-.548-.281-1.127-.549-1.694-.819a2.661 2.661 0 0 1-.021.15l-.32-.308a74.915 74.915 0 0 0-4.839-2.075 86.51 86.51 0 0 0-4.174-1.496 99.115 99.115 0 0 0-6.185-1.825 108.334 108.334 0 0 0-4.232-1.015 125.05 125.05 0 0 0-22.086-2.795 126.79 126.79 0 0 0-7.265-.084c-1.48.026-2.96.082-4.432.161-1.186.063-2.371.139-3.552.238-1.301.108-2.598.243-3.897.392.278.05.553.105.834.158l.922.185c.452.089.902.18 1.36.276.324.069.65.137.977.208.46.1.92.206 1.388.311.33.074.658.148.992.227.191.045.386.083.58.13.3.071.604.15.903.224.32.076.637.149.957.23.554.137 1.115.279 1.676.423l.665.17.15.037c1.68.441 3.396.916 5.136 1.423.28.081.56.165.842.25.27.078.54.16.81.242.326.097.652.192.977.292.341.102.684.21 1.022.315.551.17 1.098.344 1.65.523.173.052.344.103.514.161.192.06.387.126.58.189.534.173 1.07.348 1.608.526.375.126.752.256 1.13.385.535.18 1.068.364 1.606.553.373.129.751.258 1.127.392.307.108.607.217.914.327.247.09.497.18.746.273.36.131.722.258 1.084.392.609.225 1.217.457 1.826.688.17.063.34.126.507.192.134.05.27.104.404.154.913.352 1.824.712 2.737 1.076.002.002.005.001.008.003.908.365 1.817.737 2.725 1.115.207.087.411.175.619.261.086.037.175.079.261.115.617.263 1.235.523 1.849.788.346.153.691.31 1.038.462.33.147.66.288.992.438.225.1.45.205.676.307.367.166.732.337 1.1.508.532.246 1.068.494 1.598.745a211.399 211.399 0 0 1 2.683 1.3c.035.015.066.034.1.05a153.796 153.796 0 0 1 2.583 1.307c.336.173.674.346 1.008.522l.55.292c.39.21.78.425 1.168.635.28.152.565.302.845.457.843.464 1.684.937 2.51 1.415.628.362 1.262.735 1.9 1.11 10.637 6.275 22.355 14.213 32.725 21.583a884.633 884.633 0 0 1 25.15 18.593 520.145 520.145 0 0 1 4.133 3.202s.424-.54 1.164-1.541c3.732-5.07 15.677-22.28 23.601-44.962.83-2.37 1.522-4.79 2.084-7.257 1.128-4.933 1.732-10.031 1.83-15.198a81.46 81.46 0 0 0-.635-11.69 85.808 85.808 0 0 0-2.294-11.654 87.965 87.965 0 0 0-3.906-11.358 90.532 90.532 0 0 0-1.656-3.679 85.383 85.383 0 0 0-10.828-17.128 81.26 81.26 0 0 0-5.493-6.088 77.998 77.998 0 0 0-12.904-10.444 76.506 76.506 0 0 0-19.58-9.025 95.861 95.861 0 0 0-3.402-.95c-.373-.097-.742-.177-1.115-.269-.756-.186-1.515-.376-2.268-.542-.443-.097-.885-.176-1.326-.265-.68-.14-1.36-.28-2.037-.404-.472-.084-.941-.154-1.41-.23-.644-.108-1.282-.216-1.923-.308-.488-.068-.975-.125-1.46-.188-.62-.076-1.239-.156-1.853-.22-.496-.052-.987-.092-1.48-.134-.603-.052-1.204-.108-1.803-.15-.5-.031-.998-.053-1.499-.077-.585-.028-1.171-.062-1.756-.08-.502-.016-1.002-.02-1.503-.027-.606-.008-1.212-.014-1.818-.012zM47.037 71.13c-.166.207-.34.43-.535.677-.173.254-.363.5-.557.742-.186.275-.377.52-.569.764-.192.244-.367.47-.519.662-.163.207-.329.413-.507.642a11.98 11.98 0 0 1-.577.7 10.44 10.44 0 0 1-.58.695l-.527.68.742.588c.178-.228.361-.42.527-.63.17-.144.36-.277.538-.361.212-.058.417-.067.66-.02.227.068.53.218.843.465l8.61 6.765c.333.26.536.5.657.707.105.223.159.44.12.63-.006.224-.091.439-.228.612-.128.236-.29.447-.469.673l.75.588c.31-.433.68-.905 1.115-1.461.393-.535.775-1.02 1.103-1.438.3-.385.645-.82 1.057-1.31.383-.488.767-.943 1.095-1.357l-.75-.592c-.19.244-.355.453-.526.6a.997.997 0 0 1-.55.38.95.95 0 0 1-.641.03c-.242-.052-.518-.207-.846-.464l-8.61-6.762c-.315-.246-.549-.488-.653-.71a1.2 1.2 0 0 1-.143-.646c.042-.195.11-.39.239-.627.136-.173.282-.394.476-.638zm-5.897 7.561c-.577.918-1.22 1.847-1.868 2.794-.664.966-1.286 1.879-1.887 2.753-.425.621-.853 1.237-1.265 1.84a35.747 35.747 0 0 1-1.303 1.819l.784.538c.268-.352.488-.633.684-.846.19-.191.372-.305.585-.376.18-.037.41-.014.665.08.262.129.585.323.968.588l7.915 5.428c.472.325.825.595 1.087.8.268.236.44.493.512.703a.939.939 0 0 1-.039.719c-.11.275-.302.6-.58 1l.784.537a46.02 46.02 0 0 1 1.353-2.049c.449-.656.913-1.329 1.388-2.021.627-.914 1.252-1.826 1.895-2.726.627-.91 1.27-1.81 1.895-2.721a24.433 24.433 0 0 1-1.346-1.245 26.778 26.778 0 0 1-1.264-1.246l-.562.665c.276.457.473.83.58 1.146.132.356.187.665.166.972-.005.318-.107.624-.273.942-.144.328-.374.71-.65 1.107l-.664.965c-.352.511-.738.73-1.177.588-.448-.092-1.013-.4-1.706-.877l-3.064-2.098.777-1.134c.239-.347.468-.645.642-.9.202-.212.392-.374.607-.492.21-.073.444-.1.696-.034.267.076.6.252.984.515l.438-.638c-.31-.213-.685-.444-1.1-.704-.406-.226-.753-.462-1.083-.688a7.433 7.433 0 0 1-.55-.407c-.2-.137-.403-.274-.607-.442a6.114 6.114 0 0 1-.535-.396 3.278 3.278 0 0 1-.407-.304l-.438.638c.107.074.204.17.338.288.139.15.235.32.319.512.068.207.098.44.07.718-.04.294-.173.607-.412.954l-1.088 1.583-4.486-3.079 1.15-1.675a11.6 11.6 0 0 1 .815-1.027c.272-.241.548-.45.826-.584.286-.097.58-.139.9-.13.312.052.663.159 1.041.31l.35-.699zm-7.664 15.487a4.853 4.853 0 0 0-.792.084c-.543.15-1.099.422-1.676.857-.556.45-1.094 1.14-1.603 2.045-.346.617-.631 1.166-.88 1.607-.242.478-.457.861-.638 1.192-.273.48-.537.941-.815 1.395-.27.48-.553.982-.865 1.491l.83.466c.14-.25.288-.472.42-.7.146-.173.314-.332.48-.442.202-.09.399-.13.645-.12a2.7 2.7 0 0 1 .908.331l9.655 5.428c.291.165.488.354.619.53.136.205.207.394.196.588a1.39 1.39 0 0 1-.12.67 5.048 5.048 0 0 1-.33.726l.827.469c.239-.475.5-.936.772-1.419.24-.472.499-.937.761-1.399.108-.194.258-.466.473-.8.184-.33.368-.656.565-1.003.184-.328.356-.637.55-.934l.346-.619-.827-.46c-.128.233-.26.463-.407.633-.131.231-.286.372-.488.462a.896.896 0 0 1-.642.146c-.257.008-.55-.107-.915-.312l-4.355-2.448c.04-.029.073-.088.138-.204.01-.02.033-.057.054-.096a.278.278 0 0 0 .035-.107l7.703-.385c.464-.017.88-.22 1.295-.592.383-.367.776-.881 1.146-1.537.063-.118.148-.27.269-.48.107-.195.23-.408.376-.631.11-.192.226-.403.346-.615.108-.194.208-.365.273-.48l-.83-.47c-.28.502-.598.883-1.007 1.161-.402.305-.855.481-1.38.515l-7.003.504c.383-1.992-.318-3.502-2.091-4.501a5.364 5.364 0 0 0-1.273-.488 3.575 3.575 0 0 0-.745-.058zm-1.384 2.898a3.09 3.09 0 0 1 1.038.1c.37.108.738.262 1.103.469.31.173.596.382.86.634.274.28.486.577.62.884.162.344.216.702.219 1.061-.021.394-.141.784-.37 1.188a1.78 1.78 0 0 1-.2.315 1.06 1.06 0 0 1-.253.315l-5.07-2.848c.082-.283.206-.593.4-.942.21-.365.47-.648.738-.853.296-.165.587-.278.915-.323zm55.1.669c-.372 1.21-8.14 27.051-5.234 62.904a222.605 222.605 0 0 1-22.621-3.613l-1.1 5.173a227.635 227.635 0 0 0 24.22 3.825c.284 2.598.626 5.243 1.03 7.93 3.328 22.11 11.575 49.371 30.355 76.423-11.27.535-23.077.397-35.413-.55l-.404 5.274c7.765.595 15.311.88 22.664.88 5.738 0 11.34-.187 16.828-.515 5.075 6.807 10.854 13.578 17.4 20.23a24.377 24.377 0 0 1-.115-5.558c.069-.714.143-1.362.22-1.991a190.35 190.35 0 0 1-11.174-13.13c2.46-.206 4.885-.45 7.291-.712-.1-.244-.234-.468-.315-.723-.454-1.438-.529-2.98-.319-4.528-3.416.376-6.877.703-10.401.95-19.526-27.067-27.998-54.502-31.354-76.615a187.873 187.873 0 0 1-.904-6.88 199.32 199.32 0 0 0 15.16.591c3.706 0 7.323-.12 10.87-.326-.094-.082-.197-.134-.291-.223a5.626 5.626 0 0 1-.692-.754 6.355 6.355 0 0 1-.8-1.38 6.032 6.032 0 0 1-.388-1.145 6.074 6.074 0 0 1-.161-1.384l-.027-.292.004-.03c-7.691.359-15.75.259-24.205-.424-2.994-35.411 4.845-61.562 4.932-61.85zm-58.233 10.432a9.393 9.393 0 0 0-3.11.442 8.779 8.779 0 0 0-2.663 1.526 7.363 7.363 0 0 0-1.857 2.571c-.485 1.118-.69 2.21-.63 3.298.081 1.095.336 2.122.803 3.049a8.64 8.64 0 0 0 1.907 2.513 9.248 9.248 0 0 0 2.667 1.753 8.471 8.471 0 0 0 3.14.707c1.095.04 2.117-.098 3.091-.45a7.14 7.14 0 0 0 2.69-1.537 7.176 7.176 0 0 0 1.85-2.552c.475-1.097.69-2.212.63-3.298a7.7 7.7 0 0 0-.826-3.06 9.04 9.04 0 0 0-1.895-2.529 9.496 9.496 0 0 0-2.657-1.726 8.482 8.482 0 0 0-3.14-.707zm-2.521 3.033a21.58 21.58 0 0 1 1.74.103c.58.108 1.174.242 1.738.389a15.23 15.23 0 0 1 1.588.565c.894.385 1.646.828 2.26 1.31.643.52 1.126 1.072 1.457 1.65.37.592.566 1.205.618 1.806a3.87 3.87 0 0 1-.31 1.895c-.213.488-.5.87-.889 1.16-.38.316-.834.53-1.322.658a4.586 4.586 0 0 1-1.603.246 7.97 7.97 0 0 1-1.733-.123 8.567 8.567 0 0 1-1.726-.361 11.056 11.056 0 0 1-1.588-.561A9.666 9.666 0 0 1 24.4 118.6a6.292 6.292 0 0 1-1.464-1.622c-.33-.577-.556-1.179-.611-1.83-.053-.603.052-1.23.323-1.86.204-.467.51-.844.887-1.165.389-.288.826-.51 1.311-.688a7.754 7.754 0 0 1 1.592-.226zM9.82 121.184c-.376 1.449-.814 2.878-1.25 4.305-.448 1.46-.883 2.893-1.33 4.352-.359 1.175-.74 2.408-1.16 3.67-.41 1.334-.812 2.531-1.161 3.675l1.364.42c.226-.628.415-1.126.604-1.52.178-.361.397-.61.665-.806.25-.132.582-.202.992-.181.43.063.982.199 1.649.404l13.776 4.216c.824.252 1.45.483 1.914.661.488.218.855.505 1.05.773.217.312.32.652.268 1.053-.031.444-.165.99-.38 1.688l1.364.419a60.29 60.29 0 0 1 .677-2.326c.192-.74.419-1.47.642-2.199.107-.349.245-.794.4-1.303.157-.506.31-1.014.515-1.576.157-.509.325-1.049.51-1.545.156-.509.29-.953.408-1.334l-1.364-.419c-.137.447-.255.826-.415 1.123-.116.38-.298.64-.565.834-.205.215-.528.36-.884.388-.368.063-.83-.012-1.434-.196l-7.269-2.23.75-2.44c.212-.698.441-1.218.63-1.614.213-.352.425-.599.684-.762.25-.133.546-.183.892-.18.367.044.808.074 1.315.127l.342-1.111c-.465-.074-1.02-.21-1.715-.423-.677-.173-1.28-.357-1.848-.53-.29-.09-.604-.185-.977-.335-.351-.107-.697-.21-1.038-.35a9.923 9.923 0 0 1-.941-.323c-.255-.078-.477-.146-.627-.23l-.365 1.21c.467.281.816.492 1.042.666.278.225.453.453.553.692.123.28.126.596.042.987-.052.4-.186.948-.38 1.58l-.707 2.322-7.807-2.395.9-2.956c.235-.76.505-1.409.741-1.96.291-.501.594-.924.903-1.25.328-.28.706-.476 1.123-.591.438-.074.89-.077 1.418.015l.238-1.242zm.469 27.937c-.121.99-.28 1.974-.442 2.952-.168 1.005-.33 1.988-.496 2.99-.134.809-.273 1.66-.438 2.534-.153.916-.314 1.743-.442 2.525l.937.154c.095-.436.174-.778.266-1.053.086-.255.209-.437.369-.592.152-.108.364-.183.634-.204.294.005.667.04 1.126.115l9.475 1.569c.567.091 1 .184 1.326.257.341.102.606.263.761.423a.96.96 0 0 1 .27.669c.02.294-.022.669-.1 1.15l.937.157c.063-.528.156-1.07.242-1.595.06-.507.146-1.011.227-1.515.042-.239.092-.54.15-.892.058-.349.11-.7.2-1.091.058-.347.117-.719.196-1.065.06-.349.11-.652.154-.915l-.938-.158c-.047.31-.092.573-.173.78a1 1 0 0 1-.304.604.922.922 0 0 1-.55.33c-.233.074-.543.066-.96 0l-5.001-.826.28-1.68a7.25 7.25 0 0 1 .273-1.122c.108-.252.23-.434.385-.565.155-.11.342-.167.573-.196.246-.005.541-.023.88-.034l.127-.761a9.179 9.179 0 0 1-1.169-.127c-.46-.053-.877-.123-1.268-.189a8.094 8.094 0 0 1-.677-.13c-.241-.042-.479-.082-.715-.142a6.748 6.748 0 0 1-.65-.131 2.62 2.62 0 0 1-.438-.096l-.134.83c.336.144.587.255.75.35.204.123.34.257.426.404.105.175.136.384.115.65 0 .267-.036.641-.107 1.08l-.266 1.594-5.37-.891.335-2.026c.09-.522.205-.979.315-1.365.147-.356.315-.661.488-.903.192-.215.422-.38.685-.496.283-.086.583-.124.938-.111l.05-.842zm153.526 10.11c-1.871 0-2.957.163-3.537.3l-5.55 1.318a197.32 197.32 0 0 0-6.058 1.722c-.336.677-.511 1.068-.511 1.068-2.443 4.033-30.106 49.648-31.424 52-2.642 4.725 2.752 10.08 5.77 9.428 4.06-.873 7.438-1.605 12.473.508 0 0-.61 3.91-2.471 7.66-1.346 2.709-2.343 5.895.257 7.907.808.625 6.8 2.272 6.8 2.272s-1.604 1.758-2.706 3.505c-1.614 2.564-1.834 6.217 1.53 7.634 1.955.822 3.517 2.06 3.517 2.06.065 4.624-1.066 6.845-1.772 14.054-.709 7.245 2.569 17.095 14.825 16.132 12.538-.987 17.815-1.479 23.394-1.783 6.675-.365 9.23 4.509 10.836 10.074 7.486 25.934 39.272 54.521 39.272 54.521l49.49-39.603c-1.686-1.847-4.428-3.45-10.94-6.969-18.387-9.94-23.017-23.492-28.375-39.184l-.423-1.245c-.688-2.007-1.414-4.138-2.214-6.4-3.057-8.641-6.102-10.608-14.234-15.875a386.274 386.274 0 0 1-4.728-3.102l-.38-.254c-4.43-2.965-9.452-6.327-14.868-10.528-10.158-7.883-20.507-23.253-20.738-39.83-.107-7.685 1.35-17.255 2.622-24.408-8.295-1.963-15.318-2.983-19.857-2.983zm24.062 4.24c-1.228 6.945-2.605 16.08-2.502 23.297.21 15.14 9.726 29.229 19.065 36.474 5.298 4.109 10.253 7.425 14.622 10.351l.38.254c1.711 1.144 3.256 2.15 4.67 3.063 8.264 5.353 12.412 8.04 15.96 18.066.808 2.278 1.54 4.418 2.23 6.439l.426 1.253c5.272 15.442 9.44 27.64 26.338 36.773 7.095 3.837 10.241 5.76 12.27 8.065l6.161-4.928c-2.139-2.097-5.462-4.166-12.077-7.926-16.988-9.656-21.157-21.846-26.434-37.281l-.065-.189c-.675-1.973-1.389-4.064-2.176-6.284-3.571-10.092-9.865-14.306-21.287-21.952-4.508-3.02-9.617-6.44-15.099-10.694-11.991-9.305-18.149-22.295-17.328-36.577.36-6.267 1.097-11.798 1.819-16.24a199.279 199.279 0 0 0-6.973-1.965zm-171.857.165a8.537 8.537 0 0 0-3.198.365 9.462 9.462 0 0 0-2.787 1.437 8.705 8.705 0 0 0-2.01 2.314 7.375 7.375 0 0 0-.911 3.04c-.09 1.213.073 2.313.488 3.318.438 1.01 1.016 1.892 1.764 2.614a8.625 8.625 0 0 0 2.618 1.745 9.09 9.09 0 0 0 3.094.776 8.332 8.332 0 0 0 3.198-.365c1.044-.32 1.965-.783 2.768-1.434a7.12 7.12 0 0 0 2.033-2.337c.51-.894.826-1.915.907-3.017.087-1.194-.073-2.31-.488-3.317a7.696 7.696 0 0 0-1.784-2.614 9.036 9.036 0 0 0-2.617-1.768 9.563 9.563 0 0 0-3.075-.757zm183 3.101a149.66 149.66 0 0 0-1.672 15.184c-.737 12.818 4.825 24.51 15.66 32.914 5.363 4.162 10.406 7.539 14.856 10.517 11.386 7.625 18.906 12.661 22.955 24.104.793 2.236 1.514 4.34 2.191 6.324l.066.192c5.368 15.702 8.915 26.077 24.48 34.925 7.117 4.043 10.81 6.351 13.331 8.967l5.985-4.789c-2.278-2.196-5.51-4.377-10.912-7.492-14.286-8.24-18.562-13.503-24.078-29.635-.858-2.514-3.728-10.87-4.563-12.985-3.198-8.092-9.045-14.437-20.184-21.894l-2.09-1.392c-4.396-2.925-9.867-6.567-14.453-10.128-8.977-6.964-17.556-15.375-15.326-34.675.35-3.013.646-5.522.911-7.676-2.411-.877-4.8-1.7-7.157-2.46zm-184.13.277a14.457 14.457 0 0 1 1.68.013c.97.071 1.827.242 2.56.496.779.281 1.419.637 1.917 1.073.546.438.93.955 1.177 1.506.267.596.377 1.226.33 1.888-.04.527-.184.986-.457 1.387a3.29 3.29 0 0 1-1.03 1.054 4.454 4.454 0 0 1-1.434.76 7.775 7.775 0 0 1-1.672.454 8.91 8.91 0 0 1-1.749.227 11.23 11.23 0 0 1-1.684-.01c-.95-.072-1.802-.243-2.579-.523a6.356 6.356 0 0 1-1.918-1.046c-.501-.438-.911-.934-1.176-1.53-.25-.55-.357-1.18-.308-1.868.037-.504.202-.955.454-1.38a5.05 5.05 0 0 1 1.01-1.084c.42-.28.906-.53 1.43-.734a22.316 22.316 0 0 1 1.677-.48 23.93 23.93 0 0 1 1.772-.2zm195.454 3.752c-.23 1.905-.493 4.084-.784 6.603-1.976 17.104 5.026 24.054 13.68 30.766 4.463 3.464 9.865 7.054 14.203 9.94l2.099 1.404c11.776 7.885 18.295 15.029 21.798 23.893.871 2.201 3.766 10.641 4.632 13.176 5.2 15.21 8.72 19.544 22.144 27.288 5.846 3.371 9.475 5.825 12.146 8.525l5.824-4.659c-2.31-2.196-5.408-4.384-10.021-7.045-13.926-8.032-18.059-11.821-23.559-27.906-.853-2.493-3.696-10.78-4.512-12.843-3.236-8.19-10.889-16.627-21.545-23.762l-1.234-.826c-4.327-2.892-10.249-6.853-15.114-10.556-11.275-8.586-15.161-13.319-13.238-31.338a191.984 191.984 0 0 0-6.519-2.66zm-57.6 1.545c9.124 1.78 16.836 11.9 16.836 11.9-8.963-5.227-21.59-6.284-21.59-6.284zm68.278 2.967c-1.43 15.225 1.899 18.582 11.697 26.042 4.757 3.624 10.619 7.541 14.898 10.402l1.238.83c11.378 7.618 19.607 16.767 23.163 25.765.827 2.091 3.476 9.81 4.578 13.03 5.096 14.9 8.414 17.943 21.63 25.566 5.192 2.994 8.668 5.508 11.265 8.064l5.386-4.309c-2.792-2.595-6.277-5.056-10.725-7.622-14.34-8.271-16.359-10.693-21.567-25.923-.835-2.445-3.625-10.582-4.436-12.634-3.687-9.324-14.765-19.865-23.497-25.712-2.714-1.818-6.158-4.24-9.806-6.803a1215.374 1215.374 0 0 0-6.208-4.344c-9.451-6.555-11.68-10.178-11.304-19.3a170.37 170.37 0 0 0-6.312-3.052zm10.582 5.313c.11 6.326 2.392 8.56 9.498 13.488 1.997 1.385 4.123 2.877 6.227 4.355 3.63 2.55 7.055 4.96 9.729 6.75 9.273 6.208 21.086 17.53 25.112 27.717.82 2.078 3.425 9.659 4.508 12.823 4.878 14.267 6.165 15.81 19.635 23.578 4.925 2.842 8.828 5.646 11.962 8.645l5.339-4.27a27.581 27.581 0 0 1-3.394-3.917 59.466 59.466 0 0 0-8.353-5.874c-14.028-8.092-15.173-9.484-20.41-24.8l-.208-.615c-2.336-6.854-3.81-10.939-4.37-12.135-3.278-6.967-10.205-15.11-18.19-21.648-10.976-7.81-23.482-16.276-34.513-22.652a142.1 142.1 0 0 0-2.572-1.445zm-77.272 2.967c6.256.333 14.264 4.524 14.264 4.524-3.915 1.611-13.669 7.977-12.288 6.696zM7.475 188.582l-.596.042c.016.176.028.356.039.534.039.216.053.412.069.612l.042.595c.04.218.051.397.062.53.031.442.06.9.073 1.388.039.53.076.995.084 1.415l.592-.046a7.18 7.18 0 0 1 .004-1.215c.05-.225.238-.375.569-.396.131-.013.289.021.423.058.183.074.341.129.48.208.163.078.303.181.442.257.163.102.277.179.37.215l3.932 2.249-3.956 3.01a6.337 6.337 0 0 1-.822.569c-.231.17-.425.25-.577.26-.11.009-.203-.028-.3-.134a3.025 3.025 0 0 1-.157-.319c-.032-.134-.062-.263-.096-.415-.008-.131-.018-.241-.024-.33l-.595.042c.034.462.096.989.138 1.587.068.614.103 1.146.135 1.584.018.265.04.572.069.926.023.373.047.73.05 1.084.026.352.052.682.05.95.02.307.037.509.042.595l.596-.042c.023-.289.03-.537.034-.757.032-.179.062-.359.096-.519.08-.136.158-.276.258-.415.123-.12.29-.264.5-.434l6.569-5.147 5.004-.362c.42-.031.733.019.961.089.229.094.416.214.515.384.145.165.227.38.243.6.063.262.082.529.103.815l.95-.07c-.021-.265-.038-.551-.062-.86a10.548 10.548 0 0 1-.088-.9c-.045-.31-.065-.596-.088-.903-.019-.29-.04-.554-.058-.82-.016-.24-.038-.526-.062-.833-.023-.31-.04-.62-.046-.954-.02-.307-.042-.619-.042-.926-.024-.31-.04-.596-.062-.86l-.949.068c.024.31.044.573.015.796.019.265-.035.47-.153.653a.935.935 0 0 1-.454.458c-.215.126-.52.188-.938.219l-5.381.388-6.527-3.79a7.197 7.197 0 0 1-.53-.315c-.14-.1-.302-.224-.446-.365a2.648 2.648 0 0 1-.346-.469 1.525 1.525 0 0 1-.154-.584Zm4.516 17.17-4.028.592.165.98c.137.024.246.143.32.308.076.191.141.474.207.865l1.38 8.383c.07.436.117.718.096.857.003.155-.065.279-.23.373l.157.961 4.024-.596-.146-.895c-.364-.027-.698-.04-.976-.085a1.5 1.5 0 0 1-.703-.177c-.17-.102-.315-.286-.446-.53-.108-.25-.212-.615-.296-1.119l-.273-1.657 11.766-1.937c.417-.065.73-.052.96 0 .24.074.435.175.55.335.16.152.263.362.3.58.087.257.13.516.177.8l.934-.154a55.174 55.174 0 0 1-.319-1.807c-.129-.653-.229-1.265-.315-1.787-.079-.48-.169-1.026-.25-1.66-.1-.615-.175-1.206-.261-1.73l-.938.153c.05.307.092.566.084.792.042.263.01.47-.092.665a.94.94 0 0 1-.411.496c-.202.144-.503.235-.915.304l-11.766 1.937-.346-2.118c-.07-.438-.08-.77-.038-1.046.07-.257.166-.474.319-.634.18-.142.388-.266.619-.35.26-.063.538-.134.845-.184zm307.514 2.622v17.447c0 3.387 1.05 6.513 2.829 9.394.385.622.801 1.231 1.253 1.83.435.58.9 1.146 1.391 1.703-5.353 6.32-5.486 14.644-5.489 15.206 0 8.307 4.455 15.614 11.063 19.626 3.314 2.013 7.165 3.213 11.285 3.26h.262c6.573 0 12.757-2.728 17.262-6.977l3.54-4.143 4.482-5.24.32-.372.26-.308.727-.845.719.845.25.292.334.389 4.478 5.239 3.54 4.136a25.862 25.862 0 0 0 7.696 5.008 24.842 24.842 0 0 0 4.136 1.33c1.765.407 3.578.646 5.43.646h.266a22 22 0 0 0 2.68-.212 21.945 21.945 0 0 0 4.585-1.126 22.586 22.586 0 0 0 7.488-4.505c4.647-4.204 7.595-10.293 7.595-17.047 0-.528-.122-7.988-4.651-14.142a23.434 23.434 0 0 0 1.476-1.633c.488-.599.924-1.206 1.307-1.822 1.178-1.887 1.853-3.853 1.853-5.889v-22.09c-8.216 20.504-49.756 21.814-48.917 21.848h-.495c1.999-.026-40.719-1.289-48.956-21.848zM26.598 216.98l-.926.212c.07.304.133.562.138.788.06.257.04.466-.05.668a.907.907 0 0 1-.38.52c-.19.157-.482.271-.888.368l-10.663 2.476c-.391.089-.72.123-.961.065-.236-.037-.424-.154-.592-.296a2.287 2.287 0 0 1-.338-.58c-.05-.216-.136-.467-.204-.77l-.926.216c.06.257.127.537.196.842.091.296.163.594.234.895.095.318.164.621.235.923.068.304.135.583.188.819.063.26.123.517.188.795.068.302.137.581.185.888.07.302.138.605.18.888.071.302.139.582.196.842l.927-.215c-.063-.278-.101-.543-.162-.8-.008-.225.006-.459.05-.653.092-.2.215-.362.404-.52.197-.136.503-.279.892-.368l10.659-2.476c.409-.094.727-.102.96-.065.242.058.445.148.573.3.168.142.284.34.33.557.106.247.166.508.231.788l.927-.215a46.386 46.386 0 0 1-.438-1.783c-.174-.64-.31-1.246-.43-1.76-.111-.476-.238-1.012-.358-1.642-.142-.604-.256-1.192-.377-1.707zm260.557 1.23c1.412 2.078 2.65 4.19 3.636 6.289.843 1.79 2.873 7.659 4.547 12.577l.212.61c4.88 14.278 5.399 14.908 18.477 22.452.617.357 1.376.82 2.21 1.35a27.208 27.208 0 0 1-1.072-7.538v-.634c-9.712-5.718-10.973-9.067-14.418-20.657l-.423-1.422c-.21-.703-.72-2.21-1.326-3.936l-1.422-1.119c-.121-.092-4.136-3.243-10.42-7.972zm-261.664 7.891a5.523 5.523 0 0 0-1.207.231c-.934.278-1.616.694-2.106 1.21a6.074 6.074 0 0 0-1.069 1.754 11.172 11.172 0 0 0-.454 2.033 13.422 13.422 0 0 1-.33 1.968c-.108.632-.316 1.182-.615 1.641-.273.475-.755.807-1.41 1.004-.615.183-1.227.062-1.815-.358-.562-.41-.992-1.066-1.257-1.953-.231-.763-.273-1.445-.158-2.056.145-.598.6-1.153 1.33-1.649l-.269-.75L13 230.372c.178.593.326 1.241.434 1.903.142.698.295 1.367.484 2.002.236.785.53 1.455.85 2.053.367.609.767 1.088 1.245 1.453.48.365 1.033.59 1.66.68.654.103 1.394.019 2.2-.223.975-.294 1.684-.694 2.175-1.21.49-.518.875-1.093 1.095-1.738.252-.63.424-1.281.5-1.953.097-.677.207-1.31.323-1.922a5.43 5.43 0 0 1 .634-1.576c.28-.454.735-.774 1.372-.968a2.023 2.023 0 0 1 1.119-.035c.354.103.68.26.938.504.288.262.515.562.715.918.204.378.373.77.488 1.15.265.887.267 1.741-.042 2.552-.265.816-.85 1.478-1.753 1.937l.292.738 3.394-1.318c-.034-.265-.044-.588-.065-.977-.019-.362-.062-.743-.096-1.168a72.269 72.269 0 0 0-.177-1.268 11.34 11.34 0 0 0-.27-1.211 10.967 10.967 0 0 0-.887-2.114 6.342 6.342 0 0 0-1.31-1.588 3.935 3.935 0 0 0-1.777-.83 3.863 3.863 0 0 0-1.049-.062zm6.3 10.26-.884.353c.212.535.31 1.015.269 1.51-.013.505-.16.97-.465 1.4l-4.013 5.762c-1.31-1.548-2.92-1.953-4.813-1.2-.367.148-.774.38-1.176.685-.375.317-.69.724-.95 1.207-.222.52-.359 1.126-.38 1.845 0 .716.191 1.567.577 2.533.26.656.514 1.224.703 1.699.218.483.377.892.52 1.241.204.515.396 1.01.572 1.511.207.514.423 1.046.623 1.61l.884-.353c-.108-.265-.188-.522-.285-.769-.04-.22-.062-.45-.046-.65.06-.212.154-.392.32-.576.172-.165.458-.35.826-.5l10.29-4.097c.306-.124.581-.162.799-.154.247.021.441.09.588.223.197.136.336.317.438.511.142.231.26.469.362.715l.88-.353c-.218-.483-.412-.976-.619-1.488-.218-.488-.41-.979-.607-1.472-.082-.207-.198-.495-.327-.873a98.418 98.418 0 0 0-.423-1.064c-.136-.352-.268-.683-.38-1.02-.113-.288-.207-.512-.262-.656l-.884.35c.1.249.195.494.235.714.1.252.114.46.053.673a.86.86 0 0 1-.288.588c-.155.205-.424.364-.815.52l-4.643 1.848c.002-.05-.02-.111-.07-.235a1.54 1.54 0 0 0-.042-.1.246.246 0 0 0-.061-.096l4.54-6.234c.278-.373.387-.821.353-1.38-.042-.53-.201-1.159-.477-1.857-.052-.123-.114-.287-.203-.515a7.962 7.962 0 0 1-.254-.684c-.081-.205-.168-.432-.258-.657a27.71 27.71 0 0 1-.207-.515zm300.756 8.948c2.75 1.908 5.749 3.63 8.806 5.17-.722 1.435-1.164 3.265-1.18 5.27-.016 1.918.366 3.687 1.015 5.112-5.243-2.228-8.894-7.448-8.826-13.5.008-.697.082-1.378.185-2.052zm72.386.784c.042.42.076.84.081 1.269.07 6.05-3.583 11.271-8.825 13.5.645-1.426 1.03-3.195 1.014-5.113-.013-1.905-.418-3.65-1.08-5.051 3.063-1.406 6.06-2.947 8.81-4.605zm-380.53.638a3.108 3.108 0 0 1 1.073.073c.372.092.684.276.964.496.294.262.523.604.696 1.034.05.126.087.229.115.357.058.145.088.276.085.396l-5.4 2.149a4.443 4.443 0 0 1-.481-.9 2.861 2.861 0 0 1-.204-1.11 2.53 2.53 0 0 1 .327-.915c.178-.263.432-.533.726-.746.318-.22.673-.406 1.061-.561a4.38 4.38 0 0 1 1.038-.273zm13.584 4.84a24.66 24.66 0 0 1-1.741.584c-.551.178-1.105.356-1.695.511l.311.811c.533-.024.959-.018 1.284.038.375.058.676.155.93.323.278.158.5.396.7.692.218.286.437.668.657 1.103l.527 1.046c.28.556.286 1-.05 1.318-.294.347-.837.696-1.588 1.077l-3.317 1.68-.619-1.227c-.189-.372-.341-.721-.48-1a2.481 2.481 0 0 1-.143-.768c.04-.22.126-.438.304-.627.197-.196.516-.407.93-.615l-.353-.691c-.336.17-.717.387-1.142.626-.396.25-.77.444-1.126.623-.176.089-.372.188-.619.288-.218.11-.438.22-.684.32-.2.101-.396.198-.604.28-.176.089-.334.172-.465.211l.354.692c.118-.06.244-.104.415-.161.197-.05.394-.053.603-.035.216.037.433.13.662.285.236.175.449.443.638.818l.868 1.715-4.854 2.46-.92-1.815a11.1 11.1 0 0 1-.51-1.207c-.079-.351-.131-.7-.116-1.007a2.64 2.64 0 0 1 .312-.853c.197-.247.465-.508.78-.765l-.45-.642-3.102 1.568a78.24 78.24 0 0 1 1.56 2.98c.531 1.044 1.034 2.035 1.512 2.982.338.672.676 1.344 1.007 1.995.338.672.67 1.323.968 2.01l.85-.426c-.181-.407-.32-.733-.412-1.011a1.38 1.38 0 0 1-.05-.692c.056-.178.185-.364.393-.542.236-.17.561-.359.976-.569l8.568-4.336c.514-.262.919-.44 1.226-.569.333-.12.64-.154.861-.115a.952.952 0 0 1 .611.38c.19.23.382.557.6.992l.845-.43c-.409-.711-.775-1.442-1.145-2.172-.362-.71-.73-1.44-1.11-2.19-.5-.987-.997-1.975-1.477-2.972-.501-.987-.981-1.985-1.48-2.971zm348.996 2.925c-.042.462-.072.93-.07 1.41.019 2.336.616 4.435 1.561 5.947a14.424 14.424 0 0 1-8.818-4.767c2.26-.747 4.742-1.614 7.327-2.59zm-36.59.013a146.515 146.515 0 0 0 7.265 2.645 14.437 14.437 0 0 1-8.756 4.7c.722-1.152 1.237-2.643 1.45-4.32.067-.525.104-1.067.107-1.626.005-.475-.021-.945-.066-1.4zm18.297 11.1-7.334 8.572 6.98 12.424.35.626 7.334-13.05zm-321.262 2.6-15.28 2.97c-.301.056-.627-.002-.976-.15a1.842 1.842 0 0 1-.811-.718l-.807.5c.205.288.413.628.657 1.022.276.404.5.76.673 1.042.233.375.49.787.75 1.249.301.49.558.902.76 1.272l.811-.503c-.076-.16-.15-.32-.253-.489-.055-.175-.126-.368-.18-.542a1.321 1.321 0 0 1 .053-.5c.068-.144.2-.307.388-.422.207-.129.42-.208.623-.258l8.921-2.022.046.077-6.004 7.811c-.089.108-.191.2-.322.28-.19.113-.346.156-.512.1a.608.608 0 0 1-.315-.215 3.17 3.17 0 0 1-.292-.392 3.187 3.187 0 0 0-.265-.38l-.807.5c.257.411.553.854.868 1.36.344.515.636.984.88 1.38.142.223.295.468.458.73.16.265.339.546.48.82.187.301.35.565.492.841.166.265.319.505.458.73l.807-.5a5.571 5.571 0 0 1-.415-.833c-.053-.255-.094-.494-.073-.712a2.39 2.39 0 0 1 .242-.695c.14-.242.31-.504.523-.792l8.933-11.735zm364.413 7.152a26.72 26.72 0 0 1-10.029 4.982c-1.986 8.568-6.528 23.117-16.37 37.554-13.835 20.292-41.284 44.48-93.513 44.48h-70.915l-9.033 7.32h84.126c92.787 0 112.425-76.558 115.734-94.336zm-359.882.573-.76.565c.186.25.343.464.438.67a.997.997 0 0 1 .219.633.921.921 0 0 1-.143.627c-.11.22-.334.439-.672.688l-8.806 6.511c-.32.236-.617.397-.861.439-.231.06-.448.028-.658-.035a2.221 2.221 0 0 1-.542-.396c-.134-.178-.307-.38-.488-.627l-.769.562.512.695c.202.24.386.485.572.735.213.249.398.504.585.753.183.25.355.48.5.676.157.213.313.426.484.654.186.252.357.486.522.746.184.249.368.501.523.745.184.25.354.478.511.688l.765-.56c-.17-.232-.311-.461-.469-.674a2.616 2.616 0 0 1-.207-.615c0-.223.045-.421.157-.641.124-.205.353-.452.673-.688l8.81-6.508c.339-.25.626-.383.857-.446.244-.04.466-.039.642.05.213.063.396.205.527.38.194.192.352.401.523.635l.764-.57c-.333-.411-.688-.89-1.11-1.46-.412-.522-.777-1.02-1.092-1.445-.289-.394-.622-.841-.984-1.369-.37-.498-.705-.99-1.023-1.418zm275.049.52-72.537 58.802h35.667c32.034 0 55.713-11.251 70.384-33.438a78.22 78.22 0 0 0 5.673-10.19l-8.475-15.09c-4.571 2.9-9.975 4.628-15.621 4.628h-.316c-5.463-.063-10.543-1.798-14.775-4.713zm52.648.084-9.644 17.159a83.329 83.329 0 0 1-5.88 10.509c-10.673 16.138-32.172 35.374-73.994 35.374h-41.002l-9.056 7.338h50.815c69.057 0 88.624-47.54 93.828-67.8a30.252 30.252 0 0 1-5.067-2.58zm9.191 3.87c-5.587 21.47-26.234 70.835-97.952 70.835h-56.147l-8.402 6.81h65.583c78.496 0 99.88-54.904 105.301-76.964a24.31 24.31 0 0 1-1.64.077h-.316c-2.191 0-4.343-.27-6.427-.757zm-331.13 3.164-9.936 8.495c-.438.373-.805.627-1.114.776a1.582 1.582 0 0 1-.796.158 1.564 1.564 0 0 1-.65-.319 9.037 9.037 0 0 1-.607-.642l-.727.615c.29.339.607.676.954 1.08.375.407.692.778.965 1.096.346.404.705.821 1.091 1.307.404.472.777.91 1.092 1.314l.719-.619c-.344-.406-.613-.789-.773-1.114-.147-.341-.202-.644-.165-.938.055-.281.19-.566.4-.865.225-.28.533-.598.937-.942l5.935-5.078-2.51 15.041c.134.09.283.224.427.392.191.158.346.343.503.527.19.189.363.39.508.557.173.17.304.32.388.423.23.268.478.557.746.904.304.354.561.658.76.926l.727-.619c-.619-.722-.915-1.375-.9-1.968.048-.593.44-1.223 1.196-1.868l6.577-5.624c.57-.49 1.035-.796 1.41-.972.389-.158.707-.229.97-.192.296.039.552.17.741.357.234.207.438.441.654.696l.722-.62c-.333-.356-.678-.76-1.08-1.23-.407-.437-.766-.86-1.084-1.233-.315-.37-.66-.771-1.045-1.257-.389-.454-.731-.89-1.046-1.257l-.726.619c.404.472.672.853.803 1.176.163.328.187.658.085.98-.087.307-.321.65-.68 1.015-.326.368-.817.813-1.423 1.33l-5.796 4.962 2.729-16.247zm103.376 8.114c-1.73.14-3.61.289-5.712.454-.706.055-1.39.08-2.049.08-.05 0-.09-.007-.138-.007 7.927 6.384 16.691 12.58 26.426 18.492l2.745-4.52a242.03 242.03 0 0 1-21.272-14.499zm-89.134 8.98a6.875 6.875 0 0 0-1.61.027c-1.027.141-2.089.526-3.091 1.137a13.52 13.52 0 0 0-2.756 2.345l-5.812 6.415a69.955 69.955 0 0 1-1.826 1.968c-.47.515-.924.868-1.384 1.08-.367.205-.786.27-1.187.173-.36-.102-.817-.384-1.307-.83l-.961 1.057c.44.4.932.802 1.449 1.269.561.464 1.03.89 1.449 1.268.538.49 1.105 1 1.695 1.58a50.34 50.34 0 0 1 1.726 1.61l.957-1.057c-.517-.514-.916-.915-1.191-1.256a1.438 1.438 0 0 1-.312-1.092c.097-.402.38-.907.842-1.518a76.427 76.427 0 0 1 2.16-2.476l5.747-6.342a16.718 16.718 0 0 1 1.614-1.538 7.039 7.039 0 0 1 1.991-1.107c.717-.249 1.463-.332 2.195-.203.806.102 1.554.51 2.291 1.18.687.622 1.118 1.285 1.292 1.983.225.738.217 1.49.023 2.299-.176.784-.514 1.598-1.057 2.448-.502.845-1.165 1.677-1.919 2.514l-7.018 7.738c-.402.443-.784.767-1.13.903-.32.155-.65.174-.98.142a3.337 3.337 0 0 1-.912-.423c-.244-.223-.56-.464-.907-.776l-.957 1.053c.297.268.614.557.957.869.368.289.712.599 1.053.91.391.308.74.623 1.08.935.347.312.662.599.935.846.294.267.593.535.91.826.347.312.662.6.985.934.343.312.687.627.984.942.346.312.663.6.957.869l.96-1.058c-.32-.288-.59-.581-.883-.849a3.835 3.835 0 0 1-.489-.846 2.05 2.05 0 0 1 .043-.988c.123-.333.385-.767.784-1.21l7.6-8.384c2.138-2.361 3.2-4.619 3.166-6.8-.013-2.162-1.055-4.226-3.167-6.142-1.107-1.002-2.22-1.697-3.344-2.09a8.433 8.433 0 0 0-1.645-.335zm18.492 14.74-.515.8c.113.07.221.141.358.254.168.11.323.24.457.403.158.158.31.335.415.535.14.194.221.431.25.715l1.53 9.686-5.166 1.219c-.716.168-1.332.271-1.849.334-.483.053-.9.045-1.291 0a3.89 3.89 0 0 1-.961-.223 6.31 6.31 0 0 1-.8-.438l-.519.8c.15.094.354.225.577.372.27.15.516.305.776.473.292.163.55.33.788.488.263.168.45.287.596.385.41.262.801.518 1.176.791.41.263.818.527 1.196.8l.519-.8c-.242-.157-.473-.333-.696-.48-.2-.179-.26-.322-.177-.454.05-.073.134-.126.28-.192.176-.068.353-.134.539-.173.207-.079.39-.12.557-.169.194-.058.347-.09.408-.104l5.762-1.41-2.414 3.732c-.218.333-.437.59-.65.715-.194.14-.374.208-.592.227a1.49 1.49 0 0 1-.553-.123c-.166-.108-.348-.199-.535-.32l-.515.8c.17.108.351.229.577.373.233.126.473.283.715.438.273.15.515.307.757.461.26.171.499.327.703.458.223.144.447.288.688.446.26.168.5.325.75.511.26.168.52.337.753.515l.72.465.518-.796c-.241-.157-.45-.32-.673-.465a2.59 2.59 0 0 1-.415-.503c-.076-.207-.099-.41-.073-.654.045-.236.17-.552.388-.888l5.95-9.194c.232-.352.452-.575.646-.711.213-.129.422-.204.62-.18.222-.016.443.048.63.168.246.108.47.253.71.408l.516-.8c-.457-.27-.96-.593-1.553-.976-.57-.344-1.088-.68-1.534-.969-.186-.123-.41-.264-.657-.453-.223-.142-.463-.304-.723-.47a9.96 9.96 0 0 1-.676-.464c-.22-.147-.412-.264-.596-.385l-.515.8c.205.134.386.253.53.4a.84.84 0 0 1 .373.476c.103.17.099.38.054.615-.026.244-.156.529-.384.88l-2.326 3.587-1.192-8.05a2.076 2.076 0 0 0-.142-.591 2.461 2.461 0 0 0-.269-.442 4.313 4.313 0 0 0-.465-.427c-.184-.12-.374-.274-.634-.442a46.591 46.591 0 0 1-.596-.38c-.244-.158-.498-.327-.776-.508-.26-.168-.507-.327-.754-.511-.241-.157-.446-.287-.596-.384zm17.928 11.136c-.785-.029-1.49.08-2.156.358a5.49 5.49 0 0 0-1.795 1.268 9.103 9.103 0 0 0-1.373 1.984l-2.644 5.131c-.326.627-.598 1.165-.842 1.587-.213.412-.444.716-.703.93-.2.192-.46.312-.738.32-.244-.005-.59-.11-.984-.312l-.439.846c.355.184.738.354 1.15.569.443.202.82.396 1.153.569.433.22.885.453 1.368.726.512.265.982.511 1.384.742l.438-.846a11.694 11.694 0 0 1-.984-.607.933.933 0 0 1-.384-.646c-.008-.275.082-.654.277-1.126a50.29 50.29 0 0 1 .964-1.968l2.618-5.074c.223-.435.485-.843.776-1.268.323-.43.705-.787 1.096-1.057.42-.284.887-.463 1.38-.508.535-.07 1.09.061 1.68.366.548.283.942.637 1.176 1.057.27.438.39.926.403 1.48a5.049 5.049 0 0 1-.257 1.76c-.176.63-.461 1.276-.807 1.945l-3.195 6.2c-.183.354-.373.628-.572.773-.181.157-.39.226-.608.265a2.216 2.216 0 0 1-.66-.12c-.195-.102-.444-.203-.72-.345l-.434.845c.234.121.49.255.765.396.286.118.562.262.838.404.302.131.582.275.857.419.276.142.528.274.746.384.236.124.472.243.726.377.276.142.535.272.8.434.273.142.551.285.795.435.279.144.533.273.77.4l.434-.85c-.255-.131-.483-.275-.72-.396a2.461 2.461 0 0 1-.46-.457c-.097-.2-.144-.4-.139-.646.021-.239.113-.565.296-.919l3.46-6.707c.973-1.89 1.271-3.53.872-4.932-.38-1.388-1.402-2.54-3.094-3.413-.884-.454-1.724-.715-2.514-.773zm9.452 4.77-.354.888c.124.05.246.095.404.185.184.07.363.166.523.3.189.123.37.268.515.442.173.165.303.383.384.653l3.394 9.202-4.824 2.203c-.669.304-1.255.528-1.749.688-.464.15-.878.223-1.272.257a3.792 3.792 0 0 1-.984-.034 6.12 6.12 0 0 1-.869-.273l-.35.884.639.257c.296.092.563.196.85.312.317.102.604.218.872.323.288.112.495.193.66.26.452.18.885.354 1.308.543.451.178.903.36 1.326.553l.353-.887c-.267-.105-.53-.231-.776-.331-.228-.14-.32-.27-.261-.411.031-.084.104-.15.238-.243.157-.102.319-.207.492-.28.189-.113.363-.19.515-.273a4.44 4.44 0 0 1 .38-.18l5.374-2.51-1.637 4.132c-.15.37-.312.664-.496.83a1.15 1.15 0 0 1-.538.334 1.471 1.471 0 0 1-.57-.013c-.186-.073-.376-.126-.583-.207l-.35.884c.183.076.389.156.638.253.254.076.523.184.788.289.296.094.562.202.83.307.289.116.559.218.784.308.247.097.494.196.761.303.289.113.556.22.834.354.29.115.577.231.835.357.288.116.556.22.803.32l.35-.888c-.265-.108-.507-.226-.754-.323a2.487 2.487 0 0 1-.503-.412 1.392 1.392 0 0 1-.2-.626c-.002-.242.06-.573.207-.946l4.036-10.178c.155-.394.334-.65.496-.827.184-.162.372-.281.57-.3.214-.055.445-.037.653.046.262.056.508.157.776.262l.35-.884c-.501-.173-1.056-.398-1.714-.658a48.808 48.808 0 0 1-1.696-.65c-.204-.08-.453-.178-.734-.314l-.803-.32a9.979 9.979 0 0 1-.75-.322c-.246-.097-.452-.174-.657-.258l-.354.884c.229.09.436.17.604.285a.884.884 0 0 1 .461.396c.131.147.17.353.17.592.02.244-.054.55-.208.941l-1.576 3.971-2.745-7.66a1.995 1.995 0 0 0-.257-.554 2.09 2.09 0 0 0-.35-.377 3.74 3.74 0 0 0-.534-.33c-.205-.082-.423-.192-.712-.308-.162-.063-.368-.148-.657-.261-.265-.105-.558-.222-.865-.342-.288-.116-.556-.22-.834-.354-.27-.108-.492-.197-.657-.265zm17.174 6.412-3.505 12.6c-.155.556-.317.97-.492 1.264a1.563 1.563 0 0 1-.573.577 1.514 1.514 0 0 1-.719.1 9.77 9.77 0 0 1-.861-.192l-.258.915c.426.118.88.22 1.392.365.538.128 1.007.256 1.41.369.512.141 1.048.291 1.638.48.596.163 1.155.316 1.638.473l.253-.911c-.511-.144-.944-.311-1.264-.492-.31-.2-.526-.42-.658-.688-.112-.262-.16-.577-.15-.942.03-.357.102-.795.246-1.307l2.095-7.526 6.312 13.884c.163 0 .36.032.573.092.246.021.48.089.714.154.263.05.52.12.73.18.242.043.433.099.562.135.341.095.703.193 1.122.335.45.123.835.232 1.15.342l.253-.919c-.918-.254-1.524-.633-1.845-1.134-.29-.514-.313-1.257-.046-2.218l2.318-8.337c.202-.727.414-1.24.627-1.595.236-.35.464-.582.703-.7.268-.13.549-.169.811-.119.31.04.61.126.93.215l.258-.918a31.322 31.322 0 0 1-1.587-.415c-.58-.14-1.114-.288-1.584-.42-.47-.128-.982-.274-1.572-.46-.575-.163-1.102-.33-1.572-.458l-.254.915c.598.165 1.034.332 1.322.526.318.181.523.444.615.77.1.303.099.716.003 1.218-.065.488-.223 1.135-.438 1.898l-2.045 7.358-6.803-15.01zm15.848 4.555-.096.588c.347.058.669.176.957.315.292.136.506.33.62.596.065.144.142.358.184.657.086.28.143.61.196.976.08.328.133.672.165 1.034.076.35.117.649.146.877l2.172 12.761.111.019c.451-.15.894-.256 1.33-.32.467-.099.86-.147 1.222-.176a3.206 3.206 0 0 1-.013-.342l.062-.37c.057-.348.18-.71.33-1.064.197-.373.338-.687.47-.934l4.143-7.722c.228-.415.427-.809.626-1.2.226-.414.448-.82.692-1.207a5.31 5.31 0 0 1 .5-.703c.168-.197.32-.328.465-.396.176-.102.364-.162.569-.173.228-.031.52-.03.853-.02l.1-.589c-.438-.05-.944-.132-1.51-.227a38.768 38.768 0 0 1-1.507-.226c-.415-.069-.917-.15-1.484-.266-.546-.091-1.022-.194-1.46-.265l-.096.588.5.085c.196.034.372.083.545.112.194.055.34.1.457.211a.61.61 0 0 1 .273.38c.066.145.073.373.031.635-.06.349-.19.751-.404 1.234-.188.464-.401.921-.638 1.399l-.472.972-4.605-.76-.488-2.907c-.03-.228-.048-.502-.093-.78-.018-.294-.03-.496-.01-.603.052-.328.214-.504.492-.546.275-.045.571-.065.834-.024l.392.07.096-.592a43.628 43.628 0 0 1-1.834-.281c-.682-.09-1.292-.191-1.84-.28-.413-.072-.915-.153-1.5-.274-.567-.091-1.045-.194-1.484-.265zm16.34 2.629-.05 1.43c.465.01.864.026 1.192.103.399.014.692.121.95.331.262.142.482.414.603.75.155.338.205.807.184 1.437l-.565 16.413c-.02.593-.102 1.092-.28 1.415-.145.33-.38.551-.654.746-.27.123-.573.21-.972.265-.333-.013-.731.005-1.196-.013l-.05 1.426c.397.015.797.026 1.23.042.465-.019.896 0 1.327.016.464.015.895.026 1.291.042.465-.019.866-.002 1.2.008.794.029 1.721.057 2.713.123 1.029.037 1.989.072 2.852.135l.046-1.426c-.428-.016-.823-.06-1.222-.073a3.767 3.767 0 0 1-.919-.335 2.048 2.048 0 0 1-.603-.784c-.121-.336-.206-.834-.185-1.43l.212-6.204 10.082.35-.215 6.196c-.019.596-.102 1.094-.28 1.422-.145.326-.385.546-.658.735-.27.126-.57.216-.969.269-.33-.01-.73.01-1.195-.005l-.05 1.422 1.295.042c.465-.016.927.002 1.392.016.498-.013.964-.003 1.426.016.464.015.896.033 1.26.046.4.01.796.023 1.227.038.464.018.896.03 1.36.08.465.016.924.034 1.357.081.465.018.9.033 1.296.046l.045-1.426c-.43-.016-.827-.064-1.226-.077a3.914 3.914 0 0 1-.918-.33 2.035 2.035 0 0 1-.604-.78c-.12-.34-.202-.84-.18-1.439l.56-16.413c.022-.63.137-1.09.281-1.418.176-.325.386-.584.654-.707a1.58 1.58 0 0 1 .942-.27c.401-.052.795-.035 1.226-.023l.05-1.422c-.795.005-1.692-.029-2.753-.065-.997 0-1.923-.03-2.721-.058a72.979 72.979 0 0 1-2.514-.115c-.929-.034-1.824-.098-2.621-.127l-.05 1.422c.464.018.865.033 1.195.111.396.014.692.122.95.327.26.144.482.418.603.754.155.335.206.804.185 1.433l-.27 7.761-10.078-.346.27-7.757c.02-.632.136-1.093.28-1.418.175-.328.385-.585.653-.711.273-.19.605-.276.938-.265.399-.056.8-.04 1.23-.024l.05-1.426a71 71 0 0 1-2.821-.065c-.997 0-1.855-.03-2.652-.058-.73-.026-1.593-.051-2.587-.12a63.064 63.064 0 0 1-2.549-.123zm-10.647 5.554 3.49.577-2.525 5.097-.042-.008z" style="color:#000;font-style:normal;font-variant:normal;font-weight:400;font-stretch:normal;font-size:medium;font-family:sans-serif;font-variant-ligatures:normal;font-variant-position:normal;font-variant-caps:normal;font-variant-numeric:normal;font-variant-alternates:normal;font-variant-east-asian:normal;font-feature-settings:normal;text-indent:0;text-decoration:none;text-decoration-line:none;text-decoration-style:solid;text-decoration-color:#000;letter-spacing:normal;word-spacing:normal;text-transform:none;writing-mode:lr-tb;direction:ltr;text-orientation:mixed;dominant-baseline:auto;baseline-shift:baseline;text-anchor:start;clip-rule:nonzero;display:inline;overflow:visible;visibility:visible;color-interpolation:sRGB;vector-effect:none;fill:#8d704f;fill-opacity:1;fill-rule:nonzero;stroke:none;stroke-width:9.84017;stroke-linecap:butt;stroke-linejoin:round;stroke-miterlimit:4;stroke-dasharray:none;stroke-dashoffset:0;stroke-opacity:1;color-rendering:auto;image-rendering:auto;shape-rendering:auto;text-rendering:auto;enable-background:accumulate;stop-color:#000" transform="translate(-5.051 -5.053) scale(1.02695)"/></svg>